<svg width="416" height="517" viewBox="0 0 416 517" fill="none" xmlns="http://www.w3.org/2000/svg">
<path d="M543.736 355.49C529.45 349.037 527.278 333.512 521.377 325.438C515.477 317.364 501.193 312.395 501.193 312.395C501.193 312.395 514.856 301.838 536.593 304.321C546.811 305.489 554.49 310.089 560.76 315.087C557.535 305.733 560.809 300.342 555.225 291.445C548.704 281.056 535.973 275.442 528.829 258.186C521.687 240.932 528.829 225.447 528.829 225.447C528.829 225.447 531.004 231.657 539.699 237.868C547.472 243.419 569.379 244.27 582.37 261.02C575.655 166.505 509.946 114.851 464.479 87.9071C425.425 64.7645 400.211 16.4653 294.698 23.449C189.185 30.449 165.694 98.1386 139.551 149.38C125.079 177.746 92.3583 184.023 64.7614 203.54C85.1878 198.196 98.1409 208.053 113.529 211.162C131.971 214.889 134.868 201.885 151.43 201.968C167.992 202.052 174.203 207.85 174.203 207.85C174.203 207.85 157.64 205.365 152.258 219.442C146.876 233.521 140.25 238.808 123.69 236.578C107.128 234.348 102.333 235.552 93.5513 243.438C84.7699 251.324 64.4814 245.528 52.8891 248.427C46.019 250.142 36.6816 262.323 30.2105 271.966C35.4399 267.735 42.5968 263.06 52.2399 258.757C79.1537 246.75 113.529 268.714 113.529 268.714C113.529 268.714 86.4255 274.924 70.6928 285.688C54.9587 296.454 43.779 286.104 33.0146 289.83C27.6215 291.697 23.27 293.588 20.2671 295.011C20.2644 295.053 20.2604 295.095 20.2577 295.137C18.0988 328.611 30.7489 358.334 52.2399 383.81C104.858 446.181 210.474 483.134 281.568 487.555C355.923 492.162 486.419 464.542 548.386 382.23C553.87 374.949 558.809 367.232 563.133 359.078C556.935 359.044 549.803 358.229 543.736 355.49Z" fill="#A5B4F7"/>
<path d="M275.123 161.165C275.123 182.725 257.646 200.202 236.084 200.202C214.525 200.202 197.046 182.725 197.046 161.165C197.046 139.605 214.525 122.126 236.084 122.126C257.646 122.126 275.123 139.605 275.123 161.165Z" fill="#7985D9"/>
<path d="M548.385 382.23C486.419 464.543 355.924 492.161 281.568 487.554C210.473 483.135 104.859 446.18 52.2405 383.809C72.2814 361.593 123.524 316.597 218.081 303.947C345.2 286.934 433.802 387.867 529.866 382.535C536.329 382.171 542.501 382.086 548.385 382.23Z" fill="#7985D9"/>
<path d="M136.318 119.866C148.118 84.4655 120.17 100.818 109.612 123.384C99.0535 145.95 79.1802 148.431 79.1802 161.165C79.1802 173.898 124.517 155.266 136.318 119.866Z" stroke="#7985D9" stroke-width="1.33333" stroke-miterlimit="10"/>
<path d="M459.892 75.4467C459.892 75.4467 426.975 47.5117 413.623 38.5057C400.269 29.5011 406.17 17.3908 436.757 31.3637C467.345 45.338 480.387 72.3208 476.35 77.9275C472.313 83.5343 459.892 75.4467 459.892 75.4467Z" stroke="#7985D9" stroke-width="1.33333" stroke-miterlimit="10"/>
<path d="M154.43 159.043C154.43 160.215 153.481 161.164 152.309 161.164C151.138 161.164 150.188 160.215 150.188 159.043C150.188 157.872 151.138 156.922 152.309 156.922C153.481 156.922 154.43 157.872 154.43 159.043Z" fill="#5061B3"/>
<path d="M172.234 163.052C172.234 164.224 171.284 165.173 170.113 165.173C168.942 165.173 167.992 164.224 167.992 163.052C167.992 161.881 168.942 160.931 170.113 160.931C171.284 160.931 172.234 161.881 172.234 163.052Z" fill="#5061B3"/>
<path d="M231.734 99.6922C231.734 100.864 230.785 101.813 229.613 101.813C228.442 101.813 227.492 100.864 227.492 99.6922C227.492 98.5208 228.442 97.5712 229.613 97.5712C230.785 97.5712 231.734 98.5208 231.734 99.6922Z" fill="#5061B3"/>
<path d="M167.992 152.161C167.992 154.048 166.462 155.577 164.577 155.577C162.69 155.577 161.16 154.048 161.16 152.161C161.16 150.274 162.69 148.746 164.577 148.746C166.462 148.746 167.992 150.274 167.992 152.161Z" fill="#5061B3"/>
<path d="M161.16 278.021C161.16 280.467 159.179 282.447 156.735 282.447C154.29 282.447 152.31 280.467 152.31 278.021C152.31 275.577 154.29 273.596 156.735 273.596C159.179 273.596 161.16 275.577 161.16 278.021Z" stroke="white" stroke-width="1.33333" stroke-miterlimit="10"/>
<path d="M411.314 89.2818C411.314 91.726 409.332 93.7063 406.889 93.7063C404.445 93.7063 402.464 91.726 402.464 89.2818C402.464 86.8375 404.445 84.8559 406.889 84.8559C409.332 84.8559 411.314 86.8375 411.314 89.2818Z" stroke="white" stroke-width="1.33333" stroke-miterlimit="10"/>
<path d="M203.851 75.1205C203.851 82.9132 197.534 89.2314 189.74 89.2314C181.946 89.2314 175.628 82.9132 175.628 75.1205C175.628 67.3265 181.946 61.0083 189.74 61.0083C197.534 61.0083 203.851 67.3265 203.851 75.1205Z" stroke="white" stroke-width="1.33333" stroke-miterlimit="10"/>
<path d="M58.8287 337.445C58.8287 353.415 45.8838 366.36 29.9144 366.36C13.9449 366.36 1 353.415 1 337.445C1 321.476 13.9449 308.531 29.9144 308.531C45.8838 308.531 58.8287 321.476 58.8287 337.445Z" stroke="white" stroke-width="1.33333" stroke-miterlimit="10"/>
<path d="M249.121 43.203C249.121 43.203 243.03 46.3642 242.742 59.7027C242.455 73.0413 255.234 79.2215 263.29 79.0782L262.584 76.9978C262.584 76.9978 248.861 75.4842 245.299 63.8405C241.736 52.1968 249.499 44.2906 249.499 44.2906L249.121 43.203Z" fill="#42211F"/>
<path d="M471 275.963C471 275.963 468.211 297.047 431.233 305.096C394.253 313.146 356.111 292.062 356.111 292.062L362.334 291.445C362.334 291.445 383.901 303.945 409.776 302.414C435.651 300.88 450.304 285.164 450.304 285.164L471 275.963Z" fill="#42211F"/>
<path d="M476.667 171.89C476.667 171.89 472.258 159.049 455.392 145.825C438.526 132.6 425.11 125.317 425.11 125.317C477.626 141.799 478.201 171.89 478.201 171.89H476.667ZM480.117 173.999C482.417 147.933 446.383 121.099 403.452 114.191C360.52 107.282 363.62 61.4918 363.62 61.4918L277.847 110.846C277.847 110.846 273.887 151.767 245.299 174.765C216.709 197.765 211.788 252.197 225.205 273.663C238.622 295.129 262.387 296.663 299.38 294.362C336.369 292.063 353.517 293.984 394.635 297.43C435.754 300.875 465.073 310.221 490.044 264.655C515.014 219.091 480.117 173.999 480.117 173.999Z" fill="#42211F"/>
<path d="M248.282 150.77C248.282 150.77 236.13 161.732 227.506 184.731C218.881 207.732 200.673 279.03 200.673 279.03L230.107 297.383L258.555 219.615L248.282 150.77Z" fill="#DE6E5C"/>
<path d="M365.56 261.341C361.083 274.588 362.184 289.079 368.647 301.484L370.227 308.309V308.323L374.559 326.973C344.91 352.71 303.726 361.392 278.395 355.797C253.049 350.203 246.601 329.466 246.601 329.466L250.513 302.063L243.803 241.097C243.803 241.097 238.556 233.083 236.326 214.635C234.079 196.173 248.281 150.771 248.281 150.771L294.422 132.324L328.071 129.455L384.197 150.771L391.458 168.959C391.195 179.016 383.791 204.883 376.053 229.329C372.387 240.938 368.647 252.227 365.56 261.341Z" fill="white"/>
<path d="M328.39 132.453C323.118 142.057 304.296 154.113 296.694 151.477C289.094 148.841 295.254 135.282 295.254 135.282C295.324 133.358 295.394 131.582 295.447 129.948C295.799 119.105 295.729 114.528 295.729 114.528L328.39 92.911C327.627 96.8567 327.248 101.364 327.117 105.898C326.721 119.088 328.39 132.453 328.39 132.453Z" fill="#DE6E5C"/>
<path d="M328.39 92.9111C327.627 96.8568 327.248 101.364 327.117 105.898C323.373 111.513 317.134 119.932 310.649 124.544C303.954 129.316 298.47 130.036 295.447 129.948C295.799 119.105 295.728 114.527 295.728 114.527L328.39 92.9111Z" fill="#C85346"/>
<path d="M260.231 81.4274C260.231 81.4274 261.36 108.165 280.19 120.216C299.019 132.267 325.381 107.036 329.901 93.1022C334.42 79.1684 332.913 49.0407 332.913 49.0407C332.913 49.0407 308.058 32.4707 289.228 32.4707C270.399 32.4707 260.231 41.8852 260.231 41.8852V81.4274Z" fill="#DE6E5C"/>
<path d="M281.691 32.9973C281.691 32.9973 281.131 42.8271 299.208 54.3125C317.284 65.7992 327.087 68.1528 327.087 68.1528L330.915 89.2691C330.915 89.2691 328.285 95.8958 327.548 98.3035C326.746 100.934 327.059 109.294 327.059 109.294C327.059 109.294 342.328 107.031 347.601 92.9105C347.601 92.9105 363.228 81.2398 363.794 60.1505C364.358 39.0599 353.438 32.4698 353.438 32.4698C353.438 32.4698 350.627 7.23868 322.751 2.90748C294.877 -1.42238 272.658 14.2049 272.658 14.2049C272.658 14.2049 259.101 12.3233 251.757 21.9258C244.414 31.5297 249.121 43.2031 249.121 43.2031C249.121 43.2031 242.719 49.4172 246.486 59.5851C250.252 69.753 260.23 71.0705 260.23 71.0705C260.23 71.0705 261.173 53.7484 266.256 45.086C271.341 36.4249 281.691 32.9973 281.691 32.9973Z" fill="#42211F"/>
<path d="M328.394 71.2593C328.394 71.2593 331.973 62.4103 339.315 61.4675C346.659 60.526 347.224 73.5183 342.139 82.1807C337.055 90.8417 329.901 89.1482 329.901 89.1482L328.394 71.2593Z" fill="#DE6E5C"/>
<path d="M324.816 61.4196C324.816 61.4196 329.712 76.1554 326.887 87.8289C326.887 87.8289 327.68 87.0457 328.719 85.5334C331.082 82.0909 332.065 68.9999 333.124 64.5131L324.816 61.4196Z" fill="#42211F"/>
<path d="M272.281 15.5237C272.281 15.5237 278.432 6.61103 290.107 2.97104C301.782 -0.670315 311.572 2.97104 311.572 2.97104L313.456 2.84524C313.456 2.84524 302.535 -2.39901 290.233 1.35191C277.93 5.10417 269.395 14.7703 269.395 14.7703L272.281 15.5237Z" fill="#42211F"/>
<path d="M353.438 32.4702C353.438 32.4702 359.945 33.7255 363.815 40.7552C367.685 47.785 363.689 54.9216 363.689 54.9216L363.041 54.0613C363.041 54.0613 366.154 48.0041 362.287 41.3829C358.421 34.7616 353.438 35.1065 353.438 35.1065V32.4702Z" fill="#42211F"/>
<path d="M262.584 66.5931C262.584 66.5931 263.365 64.8103 268.934 64.9212C274.505 65.0335 277.846 68.1527 277.846 68.1527C277.846 68.1527 275.284 63.3616 270.216 62.6934C265.148 62.0252 262.697 65.8126 262.584 66.5931Z" fill="#42211F"/>
<path d="M281.691 32.9973C281.691 32.9973 280.818 42.6377 286.466 50.4209C292.116 58.204 308.811 58.204 308.811 58.204L309.48 59.7014C309.48 59.7014 292.994 59.8353 286.342 53.9364C279.688 48.0361 278.935 38.1685 280.19 32.9973H281.691Z" fill="#42211F"/>
<path d="M292.898 67.2087C292.898 67.2087 293.798 65.1513 300.232 65.2798C306.665 65.407 310.524 69.0104 310.524 69.0104C310.524 69.0104 307.564 63.4781 301.712 62.7057C295.857 61.9347 293.026 66.3078 292.898 67.2087Z" fill="#42211F"/>
<path d="M277.847 92.5366C277.847 92.5366 278.693 93.3834 281.895 94.3248C285.096 95.2676 287.356 94.3248 287.356 94.3248C287.356 94.3248 286.389 92.5366 283.907 92.1606C281.424 91.7832 277.847 92.5366 277.847 92.5366Z" fill="#A73B34"/>
<path d="M277.847 68.1525C277.847 68.1525 279.625 70.0354 280.284 74.9307C280.944 79.8273 280.284 83.6864 280.284 83.6864C280.284 83.6864 278.046 70.8835 277.847 68.1525Z" fill="#C85346"/>
<path d="M263.291 73.6127C263.291 73.6127 266.022 74.7895 269.457 75.1669C272.894 75.5429 277.13 74.4608 277.13 74.4608C277.13 74.4608 275.552 70.2216 271.906 69.2355C266.162 67.6813 263.291 73.6127 263.291 73.6127Z" fill="#C85346"/>
<path d="M292.898 74.3062C292.898 74.3062 293.464 69.9628 299.02 69.0106C304.574 68.0583 311.164 73.895 311.164 73.895C311.164 73.895 300.241 79.1081 292.898 74.3062Z" fill="#C85346"/>
<path d="M270.367 75.1205C266.664 75.0583 263.29 73.6123 263.29 73.6123L262.584 74.083C262.124 74.3901 261.094 74.524 261.094 74.524C262.089 74.9569 263.121 74.9325 263.752 74.8541C265.034 75.5872 267.304 76.5855 270.21 76.626C274.823 76.6883 277.131 75.0881 277.131 75.0881V74.4604C277.131 74.4604 274.071 75.1814 270.367 75.1205Z" fill="#42211F"/>
<path d="M311.164 73.8953C311.164 73.8953 306.695 75.2548 302.065 75.3819C297.435 75.5077 293.155 74.1456 293.155 74.1456L292.293 74.6826C291.732 75.0329 290.45 75.2263 290.45 75.2263C291.713 75.6362 293.001 75.5564 293.785 75.4414C295.421 76.1543 298.301 77.0984 301.935 76.9889C307.702 76.8171 309.48 75.4468 310.734 74.6244C310.911 74.5081 311.164 73.8953 311.164 73.8953Z" fill="#42211F"/>
<path d="M277.847 101.073C277.847 101.073 278.799 101.512 282.601 102.266C286.404 103.018 295.447 101.073 295.447 101.073C295.447 101.073 288.773 99.9431 286.647 100.069C284.521 100.195 283.077 101.248 283.077 101.248C283.077 101.248 281.132 99.6915 279.939 99.6915C278.746 99.6915 276.55 100.383 276.55 100.383L277.847 101.073Z" fill="#A73B34"/>
<path d="M279.212 105.099C279.212 105.099 281.801 106.856 285.567 106.982C289.333 107.106 293.414 105.538 293.414 105.538C293.414 105.538 291.145 108.792 286.312 109.295C281.479 109.797 279.212 105.099 279.212 105.099Z" fill="#C85346"/>
<path d="M232.982 346.066L249.191 311.37C249.191 311.37 259.967 322.729 292.898 323.88C325.828 325.029 370.228 308.325 370.228 308.325C370.228 308.325 381.602 337.679 381.602 348.603C381.602 359.529 316.627 402.653 316.627 402.653L278.104 399.777L232.982 346.066Z" fill="#843D3A"/>
<path d="M231.136 402.653C231.136 402.653 220.492 406.796 216.846 408.495C216.846 408.495 200.943 410.122 194.56 412.005C188.177 413.888 186.565 422.445 184.999 431.687C183.433 440.929 171.527 453.329 167.833 459.761C164.139 466.194 165.903 473.839 166.413 475.422C166.923 477.004 164.817 482.401 167.466 485.742C170.115 489.082 171.657 487.361 173.139 486.535C174.619 485.709 175.07 482.768 175.07 482.768C175.07 482.768 179.18 481.967 180.718 480.773C182.256 479.578 180.678 479.562 184.477 478.338C188.277 477.114 190.233 476.134 192.353 474.578C194.473 473.021 206.465 452.207 214.106 445.551C221.747 438.894 235.505 436.56 235.505 436.56L231.136 402.653Z" fill="#DE6E5C"/>
<path d="M439.481 440.025C413.52 446.572 357.144 451.174 306.617 454.166C254.562 457.251 208.719 458.62 208.719 458.62L201.005 434.136L194.162 412.428L345.472 382.428C345.472 382.428 341.354 351.102 374.316 334.223C374.316 334.223 472.445 335.001 496.218 362.599C519.98 390.196 494.3 426.234 439.481 440.025Z" fill="#843D3A"/>
<path d="M291.768 431.418C291.768 431.418 302.412 435.561 306.057 437.259C306.057 437.259 321.959 438.887 328.343 440.77C334.728 442.653 336.338 451.21 337.904 460.453C339.47 469.694 351.377 482.094 355.072 488.526C358.765 494.959 357.002 502.604 356.492 504.187C355.982 505.769 358.087 511.166 355.437 514.508C352.789 517.847 351.247 516.127 349.765 515.3C348.283 514.474 347.833 511.533 347.833 511.533C347.833 511.533 343.722 510.732 342.184 509.538C340.649 508.343 342.226 508.327 338.426 507.103C334.627 505.879 332.671 504.9 330.551 503.343C328.43 501.786 316.439 480.972 308.798 474.316C301.156 467.66 287.399 465.325 287.399 465.325L291.768 431.418Z" fill="#DE6E5C"/>
<path d="M241.305 339.979C241.305 339.979 111.933 339.979 91.2329 362.978C70.5332 385.979 82.0335 415.303 98.7077 425.077C115.383 434.853 290.179 473.951 290.179 473.951L299.38 420.478L273.591 412.429L287.399 393.939L241.305 339.979Z" fill="#843D3A"/>
<path d="M240.921 344.962C240.921 344.962 267.919 378.386 282.595 388.316C282.595 388.316 252.422 385.211 240.921 344.962Z" fill="#6B2C2C"/>
<path d="M136.657 373.904C136.657 373.904 159.082 376.778 194.156 384.253C229.23 391.727 273.591 412.427 273.591 412.427C273.591 412.427 228.082 381.377 192.433 373.904C156.781 366.429 136.657 373.904 136.657 373.904Z" fill="#6B2C2C"/>
<path d="M261.758 404.883C261.758 404.883 366.078 373.749 409.777 366.639C409.777 366.639 317.377 394.412 273.591 412.428L261.758 404.883Z" fill="#6B2C2C"/>
<path d="M362.334 342.215C362.334 342.215 311.761 367.179 294.741 392.487C294.741 392.487 348.05 365.151 362.334 342.215Z" fill="#6B2C2C"/>
<path d="M95.3841 342.947C89.6881 344.957 83.1534 342.947 82.3161 341.942C81.4788 340.938 87.8444 335.075 87.8444 330.55C87.8444 329.843 87.7552 329.295 87.6091 328.859C88.5451 329.838 89.8612 330.823 91.1828 331.387C94.7132 332.895 102.421 333.723 104.431 334.901C106.441 336.08 101.08 340.938 95.3841 342.947ZM230.107 297.383C230.107 297.383 221.518 276.486 201.376 276.298L121.396 330.558C119.854 329.759 117.15 328.647 112.974 327.87C105.771 326.53 91.5304 326.696 87.8444 326.027C86.067 325.703 85.9683 326.591 86.7285 327.763C85.5544 327.277 83.6837 328.587 82.2404 330.718C79.9706 334.07 74.2759 340.312 74.2759 343.809C74.2759 347.304 80.4738 350.821 84.1598 350.989C84.1598 350.989 71.595 354.173 69.2495 358.696C66.904 363.218 73.1018 362.548 75.1132 361.543C77.1233 360.538 90.0236 357.02 90.0236 357.02C90.0236 357.02 77.291 364.057 76.9556 368.915C76.6201 373.774 80.977 370.927 84.9971 368.915C89.0172 366.905 96.2214 363.218 96.2214 363.218C96.2214 363.218 85.8344 370.759 87.6781 374.108C89.5204 377.46 98.0637 369.808 104.934 366.682C111.803 363.553 116.994 363.095 122.79 360.841C130.899 357.69 135.179 350.905 135.179 350.905C149.471 345.585 210.714 321.773 230.107 297.383Z" fill="#DE6E5C"/>
<path d="M105.505 334.636C105.505 334.636 111.829 338.23 118.872 338.23C125.917 338.23 117.436 341.392 112.189 339.811C106.942 338.23 105.505 334.636 105.505 334.636Z" fill="#C85346"/>
<path d="M127.697 347.146C127.697 347.146 123.384 347.288 117.347 350.451C111.309 353.613 108.147 361.663 106.565 360.37C104.984 359.077 109.296 346.715 127.697 347.146Z" fill="#C85346"/>
<path d="M86.0425 350.771C86.0425 350.771 99.2566 361.456 100.838 361.6C102.418 361.744 95.3853 351.347 86.0425 350.771Z" fill="#C85346"/>
<path d="M368.664 301.847L370.243 308.674V308.689L342.072 317.382C342.072 317.382 356.405 282.747 356.128 256.242C355.853 229.738 364.505 196.755 364.505 196.755L376.07 229.695C372.403 241.302 368.664 252.591 365.577 261.705C361.099 274.951 362.201 289.443 368.664 301.847Z" fill="#FCCAB7"/>
<path d="M491.453 363.794C486.231 360.759 481.867 354.987 484.061 354.205C486.256 353.422 493.981 354.043 497.734 353.219C499.136 352.91 500.612 352.186 501.713 351.399C501.489 351.799 501.298 352.322 501.168 353.015C500.327 357.46 505.49 364.406 504.479 365.238C503.47 366.07 496.676 366.828 491.453 363.794ZM514.202 384.129C512.739 379.25 500.987 373.784 500.987 373.784C504.639 374.306 511.383 372.001 512.034 368.567C512.683 365.132 508.249 357.937 506.642 354.223C505.621 351.861 504.026 350.226 502.783 350.486C503.748 349.475 503.815 348.585 502.009 348.572C498.263 348.545 484.303 345.731 476.975 345.707C474.02 345.697 471.744 345.981 470.064 346.322L416.484 270.981C413.523 252.567 409.434 205.956 404.602 185.307C398.277 158.283 384.192 150.77 384.192 150.77C384.192 150.77 366.726 161.157 363.815 181.282C360.902 201.407 386.551 291.446 386.551 291.446C395.66 317.061 443.626 357.997 450.304 365.645C450.304 365.645 453.814 371.672 461.197 376.278C466.473 379.568 471.488 380.987 477.656 385.337C483.822 389.688 490.795 398.794 493.228 395.844C495.661 392.897 486.86 383.555 486.86 383.555C486.86 383.555 493.251 388.517 496.829 391.241C500.404 393.964 504.155 397.573 504.728 392.736C505.303 387.9 494.103 378.618 494.103 378.618C494.103 378.618 506.123 384.475 507.911 385.837C509.699 387.199 515.665 389.011 514.202 384.129Z" fill="#DE6E5C"/>
<path d="M289.721 140.671C289.721 140.671 283.442 152.626 293.412 155.887C303.384 159.147 320.463 147.813 329.159 139.43C329.159 139.43 317.669 157.906 299.037 160.856C280.405 163.806 284.725 144.738 289.721 140.671Z" fill="#FCCAB7"/>
</svg>
